<svg xmlns="http://www.w3.org/2000/svg" width="120" height="24" viewBox="0 0 120 24" shape-rendering="crispEdges">
  <rect x="0" y="16" width="120" height="6" fill="#43a047"/>
  <rect x="2" y="12" width="2" height="4" fill="#2e7d32"/>
  <rect x="6" y="13" width="2" height="3" fill="#2e7d32"/>
  <rect x="10" y="11" width="2" height="5" fill="#2e7d32"/>
  <rect x="14" y="12" width="2" height="4" fill="#2e7d32"/>
  <rect x="18" y="13" width="2" height="3" fill="#2e7d32"/>
  <rect x="22" y="11" width="2" height="5" fill="#2e7d32"/>
  <rect x="26" y="12" width="2" height="4" fill="#2e7d32"/>
  <rect x="30" y="13" width="2" height="3" fill="#2e7d32"/>
  <rect x="34" y="11" width="2" height="5" fill="#2e7d32"/>
  <rect x="38" y="12" width="2" height="4" fill="#2e7d32"/>
  <rect x="42" y="13" width="2" height="3" fill="#2e7d32"/>
  <rect x="46" y="11" width="2" height="5" fill="#2e7d32"/>
  <rect x="50" y="12" width="2" height="4" fill="#2e7d32"/>
  <rect x="54" y="13" width="2" height="3" fill="#2e7d32"/>
  <rect x="58" y="11" width="2" height="5" fill="#2e7d32"/>
  <rect x="62" y="12" width="2" height="4" fill="#2e7d32"/>
  <rect x="66" y="13" width="2" height="3" fill="#2e7d32"/>
  <rect x="70" y="11" width="2" height="5" fill="#2e7d32"/>
  <rect x="74" y="12" width="2" height="4" fill="#2e7d32"/>
  <rect x="78" y="13" width="2" height="3" fill="#2e7d32"/>
  <rect x="82" y="11" width="2" height="5" fill="#2e7d32"/>
  <rect x="86" y="12" width="2" height="4" fill="#2e7d32"/>
  <rect x="90" y="13" width="2" height="3" fill="#2e7d32"/>
  <rect x="94" y="11" width="2" height="5" fill="#2e7d32"/>
  <rect x="98" y="12" width="2" height="4" fill="#2e7d32"/>
  <rect x="102" y="13" width="2" height="3" fill="#2e7d32"/>
  <rect x="106" y="11" width="2" height="5" fill="#2e7d32"/>
  <rect x="110" y="12" width="2" height="4" fill="#2e7d32"/>
  <rect x="114" y="13" width="2" height="3" fill="#2e7d32"/>
</svg>
